<svg xmlns="http://www.w3.org/2000/svg" width="375" height="67" viewBox="0 0 375 67"><g id="a"><rect width="375" height="67" fill="none"/></g><g id="b"><path d="M160.92,18.83h-11.09v29.26h11.09c7.89,0,12.99-5.72,12.99-14.57s-5.22-14.69-12.99-14.69ZM170.44,33.52c0,6.94-3.56,11.08-9.51,11.08h-7.61v-22.29h7.61c5.87,0,9.51,4.3,9.51,11.21ZM180.7,44.6h13.99v3.48h-17.46v-29.26h17.01v3.48h-13.53v9.68h11.83v3.48h-11.83v9.14ZM101.38,33.35h12.13v.38c0,9.53-4.83,14.77-13.61,14.77-8.24,0-14.69-6.58-14.69-14.98s6.45-15.02,14.69-15.02c3.45,0,6.68,1.17,9.34,3.4l.32.26-2.47,2.47-.26-.21c-1.97-1.6-4.37-2.44-6.92-2.44-6.29,0-11.21,5.07-11.21,11.54s4.92,11.5,11.21,11.5c5.76,0,9.31-3.04,9.77-8.35h-8.29v-3.31ZM233.24,18.83l-9.89,29.26h-3.16l-5.3-18.15-5.3,18.15h-3.16l-.09-.25-9.81-29h3.69l7.69,23.31,5.66-19.55h2.63l5.66,19.55,7.69-23.31h3.69ZM141.31,18.83h3.48v29.26h-3.48v-29.26ZM133.07,18.83h3.48v19.24c0,6.04-4.4,10.43-10.47,10.43s-10.47-4.39-10.47-10.43v-19.24h3.48v19.24c0,4.03,2.94,6.95,6.99,6.95s6.99-2.92,6.99-6.95v-19.24ZM353.04,27.94c0-4.4-2.17-9.11-8.28-9.11h-10.97v29.26h3.52v-11.13h4.23l7.86,11.13h4.27l-7.89-11.17c4.56-.43,7.25-3.73,7.25-8.98ZM349.55,27.94c0,1.67-.49,5.54-5,5.54h-7.24v-11.16h7.44c4.45,0,4.8,4.31,4.8,5.62ZM374,44.6v3.48h-17.47v-29.26h17.01v3.48h-13.53v9.68h11.83v3.48h-11.83v9.14h13.98ZM319.73,18.83h-3.41l-11.25,29.26h3.74l2.86-7.49h12.68l2.9,7.49h3.74l-11.16-29.02-.09-.24ZM323.11,37.28h-10.16l5.08-13.23,5.08,13.23ZM244.65,18.83h-3.41l-11.25,29.26h3.74l2.85-7.49h12.68l2.9,7.49h3.74l-11.16-29.02-.09-.24ZM248.02,37.28h-10.16l5.08-13.23,5.08,13.23ZM272.5,18.83h4.23l-11.19,15.76v13.5h-3.57v-13.5l-11.06-15.76h4.18l8.66,12.02,8.74-12.02ZM301.88,41.38l2.43,2.48-.25.26c-2.73,2.82-6.44,4.38-10.45,4.38-8.09,0-14.19-6.44-14.19-14.98s6.1-15.02,14.19-15.02c3.98,0,7.67,1.55,10.41,4.38l.26.26-2.43,2.43-.27-.26c-2.14-2.14-4.97-3.32-7.97-3.32-6.11,0-10.71,4.96-10.71,11.54s4.61,11.5,10.71,11.5c3.04,0,5.88-1.19,8.01-3.36l.27-.27Z" fill="#677075"/><path d="M66.28,30.56h-27.97v-6.92h4.97l-8.82-8.82-8.82,8.82h4.16v6.92h-11.28v7.47h11.28v10.39h8.51v-10.39h19.97c-2.14,11.51-12.24,20.26-24.36,20.26-13.67,0-24.79-11.12-24.79-24.79s11.12-24.79,24.79-24.79c10.45,0,19.39,6.51,23.03,15.68h8.14C61.15,10.89,48.68,1,33.93,1,16.01,1,1.43,15.58,1.43,33.5s14.58,32.5,32.5,32.5,32.5-14.58,32.5-32.5c0-.99-.06-1.97-.15-2.94Z" fill="#0098db"/></g></svg>